<svg width="192" height="18" viewBox="0 0 192 18" fill="none" xmlns="http://www.w3.org/2000/svg">
<path d="M0.0924063 0.487999H14.3724V4.448H5.39641V6.728H13.0764V10.52H5.39641V13.04H14.5404V17H0.0924063V0.487999ZM24.3487 0.199999C26.4607 0.199999 28.1967 0.631999 29.5567 1.496C30.9167 2.344 31.6127 3.608 31.6447 5.288V5.576H26.6767V5.48C26.6767 5 26.5007 4.6 26.1487 4.28C25.7967 3.96 25.2607 3.8 24.5407 3.8C23.8367 3.8 23.2927 3.904 22.9087 4.112C22.5407 4.32 22.3567 4.576 22.3567 4.88C22.3567 5.312 22.6127 5.632 23.1247 5.84C23.6367 6.048 24.4607 6.264 25.5967 6.488C26.9247 6.76 28.0127 7.048 28.8607 7.352C29.7247 7.64 30.4767 8.12 31.1167 8.792C31.7567 9.464 32.0847 10.376 32.1007 11.528C32.1007 13.48 31.4367 14.928 30.1087 15.872C28.7967 16.816 27.0367 17.288 24.8287 17.288C22.2527 17.288 20.2447 16.856 18.8047 15.992C17.3807 15.128 16.6687 13.6 16.6687 11.408H21.6847C21.6847 12.24 21.9007 12.8 22.3327 13.088C22.7647 13.36 23.4367 13.496 24.3487 13.496C25.0207 13.496 25.5727 13.424 26.0047 13.28C26.4527 13.136 26.6767 12.84 26.6767 12.392C26.6767 11.992 26.4287 11.696 25.9327 11.504C25.4527 11.296 24.6607 11.08 23.5567 10.856C22.2127 10.568 21.1007 10.272 20.2207 9.968C19.3407 9.648 18.5727 9.128 17.9167 8.408C17.2607 7.688 16.9327 6.712 16.9327 5.48C16.9327 3.672 17.6287 2.344 19.0207 1.496C20.4287 0.631999 22.2047 0.199999 24.3487 0.199999ZM43.997 0.487999C45.021 0.487999 45.933 0.727999 46.733 1.208C47.533 1.672 48.157 2.32 48.605 3.152C49.053 3.968 49.277 4.888 49.277 5.912V6.224C49.277 7.248 49.053 8.176 48.605 9.008C48.157 9.84 47.533 10.496 46.733 10.976C45.933 11.44 45.021 11.672 43.997 11.672H40.037V17H34.733V0.487999H43.997ZM40.037 7.808H42.221C42.781 7.808 43.197 7.664 43.469 7.376C43.757 7.088 43.901 6.696 43.901 6.2V6.008C43.901 5.496 43.757 5.104 43.469 4.832C43.197 4.544 42.781 4.4 42.221 4.4H40.037V7.808ZM60.2613 0.199999C63.1093 0.199999 65.3093 0.927999 66.8613 2.384C68.4133 3.84 69.1893 5.96 69.1893 8.744C69.1893 11.528 68.4133 13.648 66.8613 15.104C65.3093 16.56 63.1093 17.288 60.2613 17.288C57.4133 17.288 55.2133 16.568 53.6613 15.128C52.1253 13.672 51.3573 11.544 51.3573 8.744C51.3573 5.944 52.1253 3.824 53.6613 2.384C55.2133 0.927999 57.4133 0.199999 60.2613 0.199999ZM60.2613 4.16C59.1253 4.16 58.2613 4.504 57.6693 5.192C57.0773 5.88 56.7813 6.808 56.7813 7.976V9.512C56.7813 10.68 57.0773 11.608 57.6693 12.296C58.2613 12.984 59.1253 13.328 60.2613 13.328C61.3973 13.328 62.2613 12.984 62.8533 12.296C63.4613 11.608 63.7653 10.68 63.7653 9.512V7.976C63.7653 6.808 63.4613 5.88 62.8533 5.192C62.2613 4.504 61.3973 4.16 60.2613 4.16ZM87.7175 5.552C87.7175 6.56 87.4455 7.472 86.9015 8.288C86.3575 9.104 85.5655 9.704 84.5255 10.088L88.1975 17H82.2455L79.3175 10.976H77.3495V17H72.0455V0.487999H82.1495C83.3335 0.487999 84.3415 0.719999 85.1735 1.184C86.0215 1.632 86.6535 2.248 87.0695 3.032C87.5015 3.8 87.7175 4.64 87.7175 5.552ZM82.3175 5.768C82.3175 5.336 82.1735 4.976 81.8855 4.688C81.5975 4.4 81.2455 4.256 80.8295 4.256H77.3495V7.304H80.8295C81.2455 7.304 81.5975 7.16 81.8855 6.872C82.1735 6.568 82.3175 6.2 82.3175 5.768ZM100.018 4.712V17H94.7143V4.712H89.2903V0.487999H105.418V4.712H100.018ZM127.635 17L120.699 8.984V17H115.827V0.487999H120.459L127.395 8.624V0.487999H132.267V17H127.635ZM135.819 0.487999H150.099V4.448H141.123V6.728H148.803V10.52H141.123V13.04H150.267V17H135.819V0.487999ZM165.547 17L163.411 6.944H163.315L161.179 17H155.347L151.483 0.487999H157.003L158.899 9.848H158.995L160.867 0.487999H166.099L168.091 9.848H168.187L169.963 0.487999H175.243L171.379 17H165.547ZM184.075 0.199999C186.187 0.199999 187.923 0.631999 189.283 1.496C190.643 2.344 191.339 3.608 191.371 5.288V5.576H186.403V5.48C186.403 5 186.227 4.6 185.875 4.28C185.523 3.96 184.987 3.8 184.267 3.8C183.563 3.8 183.019 3.904 182.635 4.112C182.267 4.32 182.083 4.576 182.083 4.88C182.083 5.312 182.339 5.632 182.851 5.84C183.363 6.048 184.187 6.264 185.323 6.488C186.651 6.76 187.739 7.048 188.587 7.352C189.451 7.64 190.203 8.12 190.843 8.792C191.483 9.464 191.811 10.376 191.827 11.528C191.827 13.48 191.163 14.928 189.835 15.872C188.523 16.816 186.763 17.288 184.555 17.288C181.979 17.288 179.971 16.856 178.531 15.992C177.107 15.128 176.395 13.6 176.395 11.408H181.411C181.411 12.24 181.627 12.8 182.059 13.088C182.491 13.36 183.163 13.496 184.075 13.496C184.747 13.496 185.299 13.424 185.731 13.28C186.179 13.136 186.403 12.84 186.403 12.392C186.403 11.992 186.155 11.696 185.659 11.504C185.179 11.296 184.387 11.08 183.283 10.856C181.939 10.568 180.827 10.272 179.947 9.968C179.067 9.648 178.299 9.128 177.643 8.408C176.987 7.688 176.659 6.712 176.659 5.48C176.659 3.672 177.355 2.344 178.747 1.496C180.155 0.631999 181.931 0.199999 184.075 0.199999Z" fill="#34C759"/>
</svg>
